<svg width="28" height="24" viewBox="0 0 28 24" fill="none" xmlns="http://www.w3.org/2000/svg">
<path d="M19.9097 0.5H19.9091C17.5245 0.5 15.3978 1.46654 14 3.13759C12.6022 1.46654 10.4755 0.5 8.09091 0.5L8.09033 0.5C6.07957 0.502319 4.15085 1.29412 2.72752 2.70329C1.30402 4.11263 0.502347 6.02449 0.5 8.01977V8.02035C0.5 11.6551 2.78452 15.3376 7.07043 18.9687L7.07123 18.9693C9.04001 20.6303 11.1666 22.0984 13.4212 23.3533L13.4212 23.3533L13.4295 23.3578C13.6052 23.4512 13.8012 23.5 14 23.5C14.1988 23.5 14.3948 23.4512 14.5705 23.3578L14.5705 23.3579L14.5788 23.3533C16.8334 22.0984 18.96 20.6303 20.9288 18.9693L20.9296 18.9687C25.2155 15.3376 27.5 11.6551 27.5 8.02035V8.01977C27.4977 6.02449 26.696 4.11263 25.2725 2.70329C23.8492 1.29412 21.9204 0.502319 19.9097 0.5Z" fill="#E35733" stroke="#E35733"/>
</svg>
