<svg width="28" height="24" viewBox="0 0 28 24" fill="none" xmlns="http://www.w3.org/2000/svg">
<path d="M19.9097 0.5H19.9091C17.5245 0.5 15.3978 1.46654 14 3.13759C12.6022 1.46654 10.4755 0.5 8.09091 0.5L8.09033 0.5C6.07957 0.502319 4.15085 1.29412 2.72752 2.70329C1.30402 4.11263 0.502347 6.02449 0.5 8.01977V8.02035C0.5 11.6551 2.78452 15.3376 7.07043 18.9687L7.07123 18.9693C9.04001 20.6303 11.1666 22.0984 13.4212 23.3533L13.4212 23.3533L13.4295 23.3578C13.6052 23.4512 13.8012 23.5 14 23.5C14.1988 23.5 14.3948 23.4512 14.5705 23.3578L14.5705 23.3579L14.5788 23.3533C16.8334 22.0984 18.96 20.6303 20.9288 18.9693L20.9296 18.9687C25.2155 15.3376 27.5 11.6551 27.5 8.02035V8.01977C27.4977 6.02449 26.696 4.11263 25.2725 2.70329C23.8492 1.29412 21.9204 0.502319 19.9097 0.5ZM12.882 5.90289L12.8823 5.90344C12.974 6.12448 13.1296 6.31273 13.3287 6.44483C13.5277 6.5769 13.7614 6.64711 14 6.64711C14.2386 6.64711 14.4723 6.5769 14.6713 6.44483C14.8704 6.31273 15.026 6.12448 15.1177 5.90344L15.118 5.90289C15.8762 4.06924 17.6922 2.90413 19.9089 2.90407C21.282 2.90557 22.5974 3.44631 23.5668 4.40607C24.5361 5.36574 25.0804 6.66587 25.0818 8.02088C25.0816 11.051 22.822 14.012 20.1817 16.4141C17.7652 18.6126 15.1386 20.2455 14 20.9113C12.8614 20.2455 10.2348 18.6126 7.81831 16.4141C5.1779 14.0119 2.91833 11.0509 2.91818 8.02065C2.91967 6.66572 3.46393 5.36569 4.43319 4.40607C5.4026 3.44631 6.71801 2.90557 8.09108 2.90407C10.3078 2.90413 12.1238 4.06924 12.882 5.90289Z" fill="#E35733" stroke="#E35733"/>
</svg>
