<svg width="40" height="40" viewBox="0 0 40 40" fill="none" xmlns="http://www.w3.org/2000/svg">
<circle cx="20" cy="20" r="20" fill="#E35733"/>
<path d="M19.0489 7.44318C19.3483 6.52187 20.6517 6.52187 20.9511 7.44318L23.2518 14.5242C23.3857 14.9363 23.7697 15.2152 24.2029 15.2152H31.6484C32.6171 15.2152 33.0199 16.4548 32.2361 17.0242L26.2126 21.4006C25.8621 21.6552 25.7155 22.1066 25.8494 22.5186L28.1501 29.5997C28.4495 30.521 27.395 31.2871 26.6113 30.7177L20.5878 26.3414C20.2373 26.0867 19.7627 26.0867 19.4122 26.3414L13.3887 30.7177C12.605 31.2871 11.5505 30.521 11.8499 29.5997L14.1506 22.5186C14.2845 22.1066 14.1379 21.6552 13.7874 21.4006L7.76386 17.0242C6.98015 16.4548 7.38292 15.2152 8.35165 15.2152H15.7971C16.2303 15.2152 16.6143 14.9363 16.7482 14.5242L19.0489 7.44318Z" fill="#FBF7EB"/>
</svg>
